<svg width="604" height="604" viewBox="0 0 604 604" fill="none" xmlns="http://www.w3.org/2000/svg">
<rect x="588.059" y="591.332" width="576" height="576" rx="48" transform="rotate(-179.674 588.059 591.332)" fill="white"/>
<path d="M552.606 143.123C552.574 148.646 548.072 153.098 542.549 153.066L452.55 152.555L453.062 62.5562C453.093 57.0335 457.596 52.5818 463.119 52.6132L543.117 53.0678C548.64 53.0992 553.092 57.6017 553.06 63.1245L552.606 143.123Z" fill="#FF7F11" fill-opacity="0.9"/>
<path d="M551.469 343.12C551.438 348.643 546.935 353.094 541.412 353.063L461.414 352.608C455.891 352.577 451.439 348.074 451.471 342.552L451.982 252.553L541.981 253.065C547.503 253.096 551.955 257.599 551.924 263.121L551.469 343.12Z" fill="#FF7F11" fill-opacity="0.95"/>
<rect x="550.275" y="553.117" width="100" height="100" rx="10" transform="rotate(-179.674 550.275 553.117)" fill="#FF7F11"/>
<rect x="152.555" y="150.85" width="100" height="100" rx="10" transform="rotate(-179.674 152.555 150.85)" fill="#FF7F11" fill-opacity="0.6"/>
<path d="M151.418 350.847L61.4194 350.335C55.8967 350.304 51.445 345.801 51.4764 340.279L51.931 260.28C51.9624 254.757 56.4649 250.306 61.9877 250.337L141.986 250.792C147.509 250.823 151.961 255.325 151.929 260.848L151.418 350.847Z" fill="#FF7F11" fill-opacity="0.65"/>
<path d="M150.339 540.844C150.308 546.366 145.805 550.818 140.282 550.787L60.2837 550.332C54.7609 550.301 50.3093 545.798 50.3407 540.275L50.7953 460.277C50.8267 454.754 55.3292 450.302 60.8519 450.334L150.85 450.845L150.339 540.844Z" fill="#FF7F11" fill-opacity="0.7"/>
<path d="M250.905 441.414C250.874 446.936 246.372 451.388 240.849 451.357L150.85 450.845L151.419 350.847L251.417 351.415L250.905 441.414Z" fill="#FF7F11" fill-opacity="0.75"/>
<path d="M351.472 341.983C351.44 347.506 346.938 351.958 341.415 351.926L251.417 351.415L251.928 261.416C251.959 255.894 256.462 251.442 261.985 251.473L351.983 251.985L351.472 341.983Z" fill="#FF7F11" fill-opacity="0.8"/>
<path d="M451.981 252.553L351.983 251.985L352.494 161.986C352.526 156.464 357.028 152.012 362.551 152.043L452.55 152.555L451.981 252.553Z" fill="#FF7F11" fill-opacity="0.85"/>
<rect x="588.059" y="591.332" width="576" height="576" rx="48" transform="rotate(-179.674 588.059 591.332)" stroke="url(#paint0_linear_109_2)" stroke-width="24"/>
<defs>
<linearGradient id="paint0_linear_109_2" x1="598.693" y1="904.812" x2="1201.68" y2="901.385" gradientUnits="userSpaceOnUse">
<stop stop-color="#FF7F11"/>
<stop offset="1" stop-color="white" stop-opacity="0"/>
</linearGradient>
</defs>
</svg>
