<svg width="604" height="604" viewBox="0 0 604 604" fill="none" xmlns="http://www.w3.org/2000/svg">
<rect x="588.059" y="591.332" width="576" height="576" rx="48" transform="rotate(-179.674 588.059 591.332)" fill="#120E3D"/>
<path d="M552.605 143.123C552.574 148.646 548.071 153.098 542.549 153.066L452.55 152.555L453.061 62.5562C453.093 57.0335 457.595 52.5818 463.118 52.6132L543.117 53.0678C548.64 53.0992 553.091 57.6017 553.06 63.1245L552.605 143.123Z" fill="#07E4D7" fill-opacity="0.9"/>
<path d="M551.469 343.12C551.438 348.643 546.935 353.094 541.412 353.063L461.414 352.608C455.891 352.577 451.439 348.074 451.471 342.552L451.982 252.553L541.981 253.065C547.503 253.096 551.955 257.599 551.924 263.121L551.469 343.12Z" fill="#07E4D7" fill-opacity="0.95"/>
<rect x="550.275" y="553.117" width="100" height="100" rx="10" transform="rotate(-179.674 550.275 553.117)" fill="#07E4D7"/>
<rect x="152.555" y="150.85" width="100" height="100" rx="10" transform="rotate(-179.674 152.555 150.85)" fill="#07E4D7" fill-opacity="0.6"/>
<path d="M151.418 350.847L61.4199 350.335C55.8972 350.304 51.4455 345.801 51.4769 340.279L51.9315 260.28C51.9629 254.757 56.4654 250.306 61.9882 250.337L141.987 250.792C147.51 250.823 151.961 255.325 151.93 260.848L151.418 350.847Z" fill="#07E4D7" fill-opacity="0.65"/>
<path d="M150.339 540.844C150.307 546.366 145.805 550.818 140.282 550.787L60.2832 550.332C54.7604 550.301 50.3088 545.798 50.3402 540.275L50.7948 460.277C50.8262 454.754 55.3287 450.302 60.8515 450.334L150.85 450.845L150.339 540.844Z" fill="#07E4D7" fill-opacity="0.7"/>
<path d="M250.905 441.414C250.874 446.936 246.372 451.388 240.849 451.357L150.85 450.845L151.419 350.847L251.417 351.415L250.905 441.414Z" fill="#07E4D7" fill-opacity="0.75"/>
<path d="M351.472 341.983C351.44 347.506 346.938 351.958 341.415 351.926L251.417 351.415L251.928 261.416C251.959 255.894 256.462 251.442 261.985 251.473L351.983 251.985L351.472 341.983Z" fill="#07E4D7" fill-opacity="0.8"/>
<path d="M451.982 252.553L351.984 251.985L352.495 161.986C352.526 156.464 357.029 152.012 362.552 152.043L452.55 152.555L451.982 252.553Z" fill="#07E4D7" fill-opacity="0.85"/>
<rect x="588.059" y="591.332" width="576" height="576" rx="48" transform="rotate(-179.674 588.059 591.332)" stroke="#07E4D7" stroke-width="24"/>
<rect x="588.059" y="591.332" width="576" height="576" rx="48" transform="rotate(-179.674 588.059 591.332)" stroke="url(#paint0_linear_9_112)" stroke-width="24"/>
<defs>
<linearGradient id="paint0_linear_9_112" x1="598.693" y1="904.812" x2="1201.68" y2="901.385" gradientUnits="userSpaceOnUse">
<stop stop-color="#120E3D"/>
<stop offset="1" stop-opacity="0"/>
</linearGradient>
</defs>
</svg>
